<svg xmlns="http://www.w3.org/2000/svg" xmlns:xlink="http://www.w3.org/1999/xlink" width="500" zoomAndPan="magnify" viewBox="0 0 375 374.999991" height="500" preserveAspectRatio="xMidYMid meet" version="1.0"><defs><g/><clipPath id="0eee1971fe"><path d="M 10 158.902344 L 152 158.902344 L 152 224.152344 L 10 224.152344 Z M 10 158.902344 " clip-rule="nonzero"/></clipPath><clipPath id="63303216e4"><path d="M 147 158.902344 L 366 158.902344 L 366 224.152344 L 147 224.152344 Z M 147 158.902344 " clip-rule="nonzero"/></clipPath><clipPath id="31c987b289"><path d="M 54 178 L 71.855469 178 L 71.855469 208 L 54 208 Z M 54 178 " clip-rule="nonzero"/></clipPath><clipPath id="aaaee7715a"><path d="M 35 173 L 53 173 L 53 212.503906 L 35 212.503906 Z M 35 173 " clip-rule="nonzero"/></clipPath></defs><rect x="-37.5" width="450" fill="#ffffff" y="-37.499999" height="449.999989" fill-opacity="1"/><rect x="-37.5" width="450" fill="#282829" y="-37.499999" height="449.999989" fill-opacity="1"/><g clip-path="url(#0eee1971fe)"><path fill="#f1eeea" d="M 77.851562 219.75 L 77.851562 163.667969 L 150.65625 163.667969 L 150.65625 158.902344 L 10.074219 158.902344 L 10.074219 224.457031 L 151.199219 224.457031 L 151.199219 219.75 Z M 77.851562 219.75 " fill-opacity="1" fill-rule="nonzero"/></g><g clip-path="url(#63303216e4)"><path fill="#f1eeea" d="M 365.457031 224.457031 L 147.789062 224.457031 L 147.789062 219.75 L 360.691406 219.75 L 360.691406 163.667969 L 147.246094 163.667969 L 147.246094 158.902344 L 365.457031 158.902344 Z M 365.457031 224.457031 " fill-opacity="1" fill-rule="nonzero"/></g><path fill="#5271ff" d="M 29.355469 207.144531 C 28.507812 207.144531 27.945312 206.863281 27.382812 206.300781 L 16.105469 195.023438 C 14.976562 193.894531 14.976562 192.203125 16.105469 191.078125 L 27.382812 179.800781 C 28.507812 178.671875 30.199219 178.671875 31.328125 179.800781 C 32.457031 180.929688 32.457031 182.621094 31.328125 183.746094 L 22.023438 193.050781 L 31.328125 202.351562 C 32.457031 203.480469 32.457031 205.171875 31.328125 206.300781 C 30.765625 206.863281 30.199219 207.144531 29.355469 207.144531 Z M 29.355469 207.144531 " fill-opacity="1" fill-rule="nonzero"/><g clip-path="url(#31c987b289)"><path fill="#5271ff" d="M 57.546875 207.144531 C 56.699219 207.144531 56.136719 206.863281 55.574219 206.300781 C 54.445312 205.171875 54.445312 203.480469 55.574219 202.351562 L 64.875 193.050781 L 55.574219 183.746094 C 54.445312 182.621094 54.445312 180.929688 55.574219 179.800781 C 56.699219 178.671875 58.390625 178.671875 59.519531 179.800781 L 70.796875 191.078125 C 71.921875 192.203125 71.921875 193.894531 70.796875 195.023438 L 59.519531 206.300781 C 58.957031 206.863281 58.390625 207.144531 57.546875 207.144531 Z M 57.546875 207.144531 " fill-opacity="1" fill-rule="nonzero"/></g><g clip-path="url(#aaaee7715a)"><path fill="#5271ff" d="M 37.8125 212.785156 C 37.53125 212.785156 37.25 212.785156 36.964844 212.5 C 35.558594 211.9375 34.710938 210.527344 35.273438 208.835938 L 46.550781 175.007812 C 47.113281 173.597656 48.523438 172.753906 50.214844 173.316406 C 51.625 173.878906 52.472656 175.289062 51.90625 176.980469 L 40.632812 210.808594 C 40.066406 211.9375 38.941406 212.785156 37.8125 212.785156 Z M 37.8125 212.785156 " fill-opacity="1" fill-rule="nonzero"/></g><g fill="#f1eeea" fill-opacity="1"><g transform="translate(128.303851, 197.111098)"><g><path d="M 5.296875 0.34375 C 4.460938 0.34375 3.742188 0.234375 3.140625 0.015625 C 2.535156 -0.191406 2.03125 -0.425781 1.625 -0.6875 C 1.164062 -0.988281 0.769531 -1.335938 0.4375 -1.734375 L 2.34375 -3.8125 C 2.550781 -3.570312 2.789062 -3.351562 3.0625 -3.15625 C 3.289062 -3 3.5625 -2.851562 3.875 -2.71875 C 4.195312 -2.582031 4.554688 -2.515625 4.953125 -2.515625 C 5.472656 -2.515625 5.863281 -2.617188 6.125 -2.828125 C 6.382812 -3.046875 6.515625 -3.289062 6.515625 -3.5625 C 6.515625 -3.832031 6.367188 -4.050781 6.078125 -4.21875 C 5.796875 -4.394531 5.441406 -4.550781 5.015625 -4.6875 C 4.597656 -4.832031 4.140625 -4.992188 3.640625 -5.171875 C 3.148438 -5.359375 2.691406 -5.597656 2.265625 -5.890625 C 1.835938 -6.191406 1.484375 -6.566406 1.203125 -7.015625 C 0.921875 -7.472656 0.78125 -8.054688 0.78125 -8.765625 C 0.78125 -9.242188 0.882812 -9.707031 1.09375 -10.15625 C 1.300781 -10.601562 1.601562 -11 2 -11.34375 C 2.40625 -11.695312 2.890625 -11.976562 3.453125 -12.1875 C 4.023438 -12.394531 4.664062 -12.5 5.375 -12.5 C 6.125 -12.5 6.765625 -12.40625 7.296875 -12.21875 C 7.828125 -12.039062 8.265625 -11.84375 8.609375 -11.625 C 9.015625 -11.375 9.359375 -11.085938 9.640625 -10.765625 L 7.71875 -8.671875 C 7.570312 -8.847656 7.394531 -9.003906 7.1875 -9.140625 C 7.007812 -9.273438 6.796875 -9.390625 6.546875 -9.484375 C 6.304688 -9.585938 6.035156 -9.640625 5.734375 -9.640625 C 5.242188 -9.640625 4.890625 -9.546875 4.671875 -9.359375 C 4.453125 -9.179688 4.34375 -8.984375 4.34375 -8.765625 C 4.34375 -8.484375 4.484375 -8.257812 4.765625 -8.09375 C 5.046875 -7.925781 5.394531 -7.769531 5.8125 -7.625 C 6.238281 -7.476562 6.703125 -7.316406 7.203125 -7.140625 C 7.703125 -6.960938 8.160156 -6.722656 8.578125 -6.421875 C 9.003906 -6.128906 9.359375 -5.753906 9.640625 -5.296875 C 9.921875 -4.847656 10.0625 -4.269531 10.0625 -3.5625 C 10.0625 -3.039062 9.953125 -2.539062 9.734375 -2.0625 C 9.515625 -1.59375 9.195312 -1.179688 8.78125 -0.828125 C 8.375 -0.472656 7.875 -0.191406 7.28125 0.015625 C 6.695312 0.234375 6.035156 0.34375 5.296875 0.34375 Z M 5.296875 0.34375 "/></g></g></g><g fill="#f1eeea" fill-opacity="1"><g transform="translate(145.837035, 197.111098)"><g><path d="M 4.515625 -12.15625 L 8.15625 -12.15625 L 12.765625 0 L 9.203125 0 L 8.328125 -2.609375 L 4.34375 -2.609375 L 3.46875 0 L -0.09375 0 Z M 7.46875 -5.296875 L 6.375 -8.765625 L 6.296875 -8.765625 L 5.203125 -5.296875 Z M 7.46875 -5.296875 "/></g></g></g><g fill="#f1eeea" fill-opacity="1"><g transform="translate(165.453354, 197.111098)"><g><path d="M 1.390625 -12.15625 L 4.34375 -12.15625 L 8.078125 -7.46875 L 11.796875 -12.15625 L 14.75 -12.15625 L 14.75 0 L 11.453125 0 L 11.453125 -7.203125 L 8.078125 -2.953125 L 4.6875 -7.203125 L 4.6875 0 L 1.390625 0 Z M 1.390625 -12.15625 "/></g></g></g><g fill="#f1eeea" fill-opacity="1"><g transform="translate(188.541584, 197.111098)"><g/></g></g><g fill="#f1eeea" fill-opacity="1"><g transform="translate(199.304548, 197.111098)"><g><path d="M 1.390625 -12.15625 L 10.59375 -12.15625 L 10.59375 -9.03125 L 4.6875 -9.03125 L 4.6875 -6.9375 L 9.203125 -6.9375 L 9.203125 -4 L 4.6875 -4 L 4.6875 0 L 1.390625 0 Z M 1.390625 -12.15625 "/></g></g></g><g fill="#f1eeea" fill-opacity="1"><g transform="translate(217.35851, 197.111098)"><g><path d="M 1.390625 -12.15625 L 7.125 -12.15625 C 7.769531 -12.15625 8.363281 -12.046875 8.90625 -11.828125 C 9.445312 -11.617188 9.910156 -11.320312 10.296875 -10.9375 C 10.691406 -10.5625 11 -10.125 11.21875 -9.625 C 11.4375 -9.125 11.546875 -8.578125 11.546875 -7.984375 C 11.546875 -7.328125 11.4375 -6.773438 11.21875 -6.328125 C 11.007812 -5.890625 10.769531 -5.539062 10.5 -5.28125 C 10.195312 -4.96875 9.847656 -4.710938 9.453125 -4.515625 L 11.984375 0 L 8.5 0 L 6.515625 -3.8125 L 4.6875 -3.8125 L 4.6875 0 L 1.390625 0 Z M 6.9375 -6.765625 C 7.332031 -6.765625 7.648438 -6.878906 7.890625 -7.109375 C 8.128906 -7.347656 8.25 -7.640625 8.25 -7.984375 C 8.25 -8.328125 8.128906 -8.613281 7.890625 -8.84375 C 7.648438 -9.082031 7.332031 -9.203125 6.9375 -9.203125 L 4.6875 -9.203125 L 4.6875 -6.765625 Z M 6.9375 -6.765625 "/></g></g></g><g fill="#f1eeea" fill-opacity="1"><g transform="translate(236.714429, 197.111098)"><g><path d="M 1.390625 -12.15625 L 10.671875 -12.15625 L 10.671875 -9.203125 L 4.6875 -9.203125 L 4.6875 -7.46875 L 9.28125 -7.46875 L 9.28125 -4.6875 L 4.6875 -4.6875 L 4.6875 -2.953125 L 10.84375 -2.953125 L 10.84375 0 L 1.390625 0 Z M 1.390625 -12.15625 "/></g></g></g><g fill="#f1eeea" fill-opacity="1"><g transform="translate(255.202371, 197.111098)"><g><path d="M 1.390625 -12.15625 L 4.25 -12.15625 L 9.453125 -5.46875 L 9.453125 -12.15625 L 12.765625 -12.15625 L 12.765625 0 L 9.890625 0 L 4.6875 -6.6875 L 4.6875 0 L 1.390625 0 Z M 1.390625 -12.15625 "/></g></g></g><g fill="#f1eeea" fill-opacity="1"><g transform="translate(276.294252, 197.111098)"><g><path d="M 7.46875 0.34375 C 6.488281 0.34375 5.585938 0.175781 4.765625 -0.15625 C 3.941406 -0.488281 3.226562 -0.941406 2.625 -1.515625 C 2.019531 -2.097656 1.546875 -2.78125 1.203125 -3.5625 C 0.859375 -4.34375 0.6875 -5.179688 0.6875 -6.078125 C 0.6875 -6.960938 0.859375 -7.796875 1.203125 -8.578125 C 1.546875 -9.359375 2.019531 -10.035156 2.625 -10.609375 C 3.226562 -11.191406 3.941406 -11.648438 4.765625 -11.984375 C 5.585938 -12.328125 6.488281 -12.5 7.46875 -12.5 C 8.332031 -12.5 9.085938 -12.375 9.734375 -12.125 C 10.378906 -11.882812 10.925781 -11.613281 11.375 -11.3125 C 11.882812 -10.96875 12.316406 -10.582031 12.671875 -10.15625 L 10.671875 -7.90625 C 10.410156 -8.1875 10.117188 -8.441406 9.796875 -8.671875 C 9.503906 -8.867188 9.160156 -9.046875 8.765625 -9.203125 C 8.378906 -9.367188 7.945312 -9.453125 7.46875 -9.453125 C 6.988281 -9.453125 6.539062 -9.363281 6.125 -9.1875 C 5.707031 -9.019531 5.347656 -8.78125 5.046875 -8.46875 C 4.742188 -8.164062 4.503906 -7.804688 4.328125 -7.390625 C 4.160156 -6.984375 4.078125 -6.546875 4.078125 -6.078125 C 4.078125 -5.597656 4.160156 -5.148438 4.328125 -4.734375 C 4.503906 -4.316406 4.742188 -3.957031 5.046875 -3.65625 C 5.347656 -3.363281 5.707031 -3.128906 6.125 -2.953125 C 6.539062 -2.773438 6.988281 -2.6875 7.46875 -2.6875 C 7.945312 -2.6875 8.382812 -2.765625 8.78125 -2.921875 C 9.175781 -3.085938 9.523438 -3.269531 9.828125 -3.46875 C 10.171875 -3.6875 10.484375 -3.945312 10.765625 -4.25 L 12.765625 -2 C 12.378906 -1.5625 11.925781 -1.164062 11.40625 -0.8125 C 10.96875 -0.507812 10.414062 -0.238281 9.75 0 C 9.09375 0.226562 8.332031 0.34375 7.46875 0.34375 Z M 7.46875 0.34375 "/></g></g></g><g fill="#f1eeea" fill-opacity="1"><g transform="translate(296.344558, 197.111098)"><g><path d="M 1.390625 -12.15625 L 4.6875 -12.15625 L 4.6875 -7.71875 L 9.109375 -7.71875 L 9.109375 -12.15625 L 12.40625 -12.15625 L 12.40625 0 L 9.109375 0 L 9.109375 -4.59375 L 4.6875 -4.59375 L 4.6875 0 L 1.390625 0 Z M 1.390625 -12.15625 "/></g></g></g></svg>