<svg xmlns="http://www.w3.org/2000/svg" xmlns:xlink="http://www.w3.org/1999/xlink" width="500" zoomAndPan="magnify" viewBox="0 0 375 374.999991" height="500" preserveAspectRatio="xMidYMid meet" version="1.0"><defs><g/><clipPath id="18de5ccec0"><path d="M 64.453125 164.839844 L 163 164.839844 L 163 209.839844 L 64.453125 209.839844 Z M 64.453125 164.839844 " clip-rule="nonzero"/></clipPath><clipPath id="52ce09e608"><path d="M 159 164.839844 L 310.453125 164.839844 L 310.453125 209.839844 L 159 209.839844 Z M 159 164.839844 " clip-rule="nonzero"/></clipPath><clipPath id="b0dfde4985"><path d="M 95 178 L 107.722656 178 L 107.722656 199 L 95 199 Z M 95 178 " clip-rule="nonzero"/></clipPath><clipPath id="dcbb408803"><path d="M 81 174.410156 L 94 174.410156 L 94 202.160156 L 81 202.160156 Z M 81 174.410156 " clip-rule="nonzero"/></clipPath></defs><rect x="-37.5" width="450" fill="#ffffff" y="-37.499999" height="449.999989" fill-opacity="1"/><rect x="-37.5" width="450" fill="#282829" y="-37.499999" height="449.999989" fill-opacity="1"/><g clip-path="url(#18de5ccec0)"><path fill="#f1eeea" d="M 111.515625 206.898438 L 111.515625 168.132812 L 161.847656 168.132812 L 161.847656 164.839844 L 64.664062 164.839844 L 64.664062 210.15625 L 162.222656 210.15625 L 162.222656 206.898438 Z M 111.515625 206.898438 " fill-opacity="1" fill-rule="nonzero"/></g><g clip-path="url(#52ce09e608)"><path fill="#f1eeea" d="M 310.332031 210.15625 L 159.863281 210.15625 L 159.863281 206.898438 L 307.039062 206.898438 L 307.039062 168.132812 L 159.488281 168.132812 L 159.488281 164.839844 L 310.332031 164.839844 Z M 310.332031 210.15625 " fill-opacity="1" fill-rule="nonzero"/></g><path fill="#5271ff" d="M 77.992188 198.183594 C 77.410156 198.183594 77.019531 197.988281 76.628906 197.597656 L 68.835938 189.804688 C 68.054688 189.023438 68.054688 187.855469 68.835938 187.078125 L 76.628906 179.28125 C 77.410156 178.503906 78.578125 178.503906 79.355469 179.28125 C 80.136719 180.0625 80.136719 181.230469 79.355469 182.011719 L 72.925781 188.441406 L 79.355469 194.871094 C 80.136719 195.648438 80.136719 196.820312 79.355469 197.597656 C 78.96875 197.988281 78.578125 198.183594 77.992188 198.183594 Z M 77.992188 198.183594 " fill-opacity="1" fill-rule="nonzero"/><g clip-path="url(#b0dfde4985)"><path fill="#5271ff" d="M 97.476562 198.183594 C 96.894531 198.183594 96.503906 197.988281 96.113281 197.597656 C 95.335938 196.820312 95.335938 195.648438 96.113281 194.871094 L 102.542969 188.441406 L 96.113281 182.011719 C 95.335938 181.230469 95.335938 180.0625 96.113281 179.28125 C 96.894531 178.503906 98.0625 178.503906 98.839844 179.28125 L 106.636719 187.078125 C 107.414062 187.855469 107.414062 189.023438 106.636719 189.804688 L 98.839844 197.597656 C 98.453125 197.988281 98.0625 198.183594 97.476562 198.183594 Z M 97.476562 198.183594 " fill-opacity="1" fill-rule="nonzero"/></g><g clip-path="url(#dcbb408803)"><path fill="#5271ff" d="M 83.839844 202.078125 C 83.644531 202.078125 83.449219 202.078125 83.253906 201.886719 C 82.28125 201.496094 81.695312 200.519531 82.085938 199.351562 L 89.878906 175.96875 C 90.269531 174.996094 91.242188 174.410156 92.410156 174.800781 C 93.386719 175.191406 93.96875 176.164062 93.582031 177.335938 L 85.789062 200.714844 C 85.398438 201.496094 84.617188 202.078125 83.839844 202.078125 Z M 83.839844 202.078125 " fill-opacity="1" fill-rule="nonzero"/></g><g fill="#f1eeea" fill-opacity="1"><g transform="translate(146.393997, 191.249987)"><g><path d="M 3.65625 0.234375 C 3.082031 0.234375 2.585938 0.160156 2.171875 0.015625 C 1.753906 -0.128906 1.40625 -0.296875 1.125 -0.484375 C 0.800781 -0.691406 0.523438 -0.929688 0.296875 -1.203125 L 1.625 -2.640625 C 1.769531 -2.472656 1.929688 -2.320312 2.109375 -2.1875 C 2.273438 -2.070312 2.46875 -1.96875 2.6875 -1.875 C 2.90625 -1.78125 3.148438 -1.734375 3.421875 -1.734375 C 3.773438 -1.734375 4.039062 -1.804688 4.21875 -1.953125 C 4.40625 -2.109375 4.5 -2.273438 4.5 -2.453125 C 4.5 -2.648438 4.398438 -2.804688 4.203125 -2.921875 C 4.003906 -3.035156 3.757812 -3.140625 3.46875 -3.234375 C 3.175781 -3.335938 2.859375 -3.453125 2.515625 -3.578125 C 2.171875 -3.703125 1.851562 -3.863281 1.5625 -4.0625 C 1.269531 -4.269531 1.023438 -4.53125 0.828125 -4.84375 C 0.640625 -5.164062 0.546875 -5.570312 0.546875 -6.0625 C 0.546875 -6.382812 0.613281 -6.703125 0.75 -7.015625 C 0.894531 -7.328125 1.101562 -7.601562 1.375 -7.84375 C 1.65625 -8.082031 1.988281 -8.273438 2.375 -8.421875 C 2.769531 -8.566406 3.21875 -8.640625 3.71875 -8.640625 C 4.226562 -8.640625 4.664062 -8.578125 5.03125 -8.453125 C 5.40625 -8.328125 5.710938 -8.191406 5.953125 -8.046875 C 6.234375 -7.867188 6.46875 -7.664062 6.65625 -7.4375 L 5.34375 -6 C 5.238281 -6.125 5.113281 -6.234375 4.96875 -6.328125 C 4.84375 -6.410156 4.691406 -6.484375 4.515625 -6.546875 C 4.347656 -6.617188 4.160156 -6.65625 3.953125 -6.65625 C 3.617188 -6.65625 3.375 -6.59375 3.21875 -6.46875 C 3.070312 -6.34375 3 -6.207031 3 -6.0625 C 3 -5.863281 3.097656 -5.707031 3.296875 -5.59375 C 3.492188 -5.476562 3.738281 -5.367188 4.03125 -5.265625 C 4.320312 -5.171875 4.640625 -5.0625 4.984375 -4.9375 C 5.328125 -4.8125 5.644531 -4.644531 5.9375 -4.4375 C 6.226562 -4.238281 6.46875 -3.976562 6.65625 -3.65625 C 6.851562 -3.34375 6.953125 -2.941406 6.953125 -2.453125 C 6.953125 -2.097656 6.875 -1.753906 6.71875 -1.421875 C 6.570312 -1.097656 6.359375 -0.8125 6.078125 -0.5625 C 5.796875 -0.320312 5.445312 -0.128906 5.03125 0.015625 C 4.625 0.160156 4.164062 0.234375 3.65625 0.234375 Z M 3.65625 0.234375 "/></g></g></g><g fill="#f1eeea" fill-opacity="1"><g transform="translate(158.514075, 191.249987)"><g><path d="M 3.125 -8.40625 L 5.640625 -8.40625 L 8.8125 0 L 6.359375 0 L 5.765625 -1.796875 L 3 -1.796875 L 2.40625 0 L -0.0625 0 Z M 5.15625 -3.65625 L 4.40625 -6.0625 L 4.359375 -6.0625 L 3.59375 -3.65625 Z M 5.15625 -3.65625 "/></g></g></g><g fill="#f1eeea" fill-opacity="1"><g transform="translate(172.074151, 191.249987)"><g><path d="M 0.953125 -8.40625 L 3 -8.40625 L 5.578125 -5.15625 L 8.15625 -8.40625 L 10.203125 -8.40625 L 10.203125 0 L 7.921875 0 L 7.921875 -4.984375 L 5.578125 -2.046875 L 3.234375 -4.984375 L 3.234375 0 L 0.953125 0 Z M 0.953125 -8.40625 "/></g></g></g><g fill="#f1eeea" fill-opacity="1"><g transform="translate(188.034238, 191.249987)"><g/></g></g><g fill="#f1eeea" fill-opacity="1"><g transform="translate(195.474299, 191.249987)"><g><path d="M 0.953125 -8.40625 L 7.3125 -8.40625 L 7.3125 -6.234375 L 3.234375 -6.234375 L 3.234375 -4.796875 L 6.359375 -4.796875 L 6.359375 -2.765625 L 3.234375 -2.765625 L 3.234375 0 L 0.953125 0 Z M 0.953125 -8.40625 "/></g></g></g><g fill="#f1eeea" fill-opacity="1"><g transform="translate(207.954372, 191.249987)"><g><path d="M 0.953125 -8.40625 L 4.921875 -8.40625 C 5.367188 -8.40625 5.78125 -8.328125 6.15625 -8.171875 C 6.53125 -8.023438 6.851562 -7.820312 7.125 -7.5625 C 7.394531 -7.300781 7.601562 -6.992188 7.75 -6.640625 C 7.90625 -6.296875 7.984375 -5.921875 7.984375 -5.515625 C 7.984375 -5.066406 7.90625 -4.6875 7.75 -4.375 C 7.601562 -4.070312 7.441406 -3.828125 7.265625 -3.640625 C 7.054688 -3.429688 6.816406 -3.257812 6.546875 -3.125 L 8.28125 0 L 5.875 0 L 4.5 -2.640625 L 3.234375 -2.640625 L 3.234375 0 L 0.953125 0 Z M 4.796875 -4.6875 C 5.066406 -4.6875 5.285156 -4.765625 5.453125 -4.921875 C 5.617188 -5.078125 5.703125 -5.273438 5.703125 -5.515625 C 5.703125 -5.753906 5.617188 -5.953125 5.453125 -6.109375 C 5.285156 -6.273438 5.066406 -6.359375 4.796875 -6.359375 L 3.234375 -6.359375 L 3.234375 -4.6875 Z M 4.796875 -4.6875 "/></g></g></g><g fill="#f1eeea" fill-opacity="1"><g transform="translate(221.334443, 191.249987)"><g><path d="M 0.953125 -8.40625 L 7.375 -8.40625 L 7.375 -6.359375 L 3.234375 -6.359375 L 3.234375 -5.15625 L 6.421875 -5.15625 L 6.421875 -3.234375 L 3.234375 -3.234375 L 3.234375 -2.046875 L 7.5 -2.046875 L 7.5 0 L 0.953125 0 Z M 0.953125 -8.40625 "/></g></g></g><g fill="#f1eeea" fill-opacity="1"><g transform="translate(234.114512, 191.249987)"><g><path d="M 0.953125 -8.40625 L 2.9375 -8.40625 L 6.546875 -3.78125 L 6.546875 -8.40625 L 8.8125 -8.40625 L 8.8125 0 L 6.84375 0 L 3.234375 -4.625 L 3.234375 0 L 0.953125 0 Z M 0.953125 -8.40625 "/></g></g></g><g fill="#f1eeea" fill-opacity="1"><g transform="translate(248.694592, 191.249987)"><g><path d="M 5.15625 0.234375 C 4.488281 0.234375 3.867188 0.117188 3.296875 -0.109375 C 2.722656 -0.335938 2.226562 -0.648438 1.8125 -1.046875 C 1.394531 -1.453125 1.066406 -1.925781 0.828125 -2.46875 C 0.597656 -3.007812 0.484375 -3.585938 0.484375 -4.203125 C 0.484375 -4.816406 0.597656 -5.394531 0.828125 -5.9375 C 1.066406 -6.476562 1.394531 -6.945312 1.8125 -7.34375 C 2.226562 -7.738281 2.722656 -8.050781 3.296875 -8.28125 C 3.867188 -8.519531 4.488281 -8.640625 5.15625 -8.640625 C 5.757812 -8.640625 6.285156 -8.554688 6.734375 -8.390625 C 7.179688 -8.222656 7.554688 -8.035156 7.859375 -7.828125 C 8.210938 -7.585938 8.515625 -7.316406 8.765625 -7.015625 L 7.375 -5.453125 C 7.195312 -5.660156 6.992188 -5.84375 6.765625 -6 C 6.566406 -6.132812 6.332031 -6.257812 6.0625 -6.375 C 5.789062 -6.488281 5.488281 -6.546875 5.15625 -6.546875 C 4.832031 -6.546875 4.523438 -6.484375 4.234375 -6.359375 C 3.941406 -6.242188 3.691406 -6.078125 3.484375 -5.859375 C 3.285156 -5.648438 3.125 -5.398438 3 -5.109375 C 2.875 -4.828125 2.8125 -4.523438 2.8125 -4.203125 C 2.8125 -3.867188 2.875 -3.554688 3 -3.265625 C 3.125 -2.984375 3.285156 -2.738281 3.484375 -2.53125 C 3.691406 -2.320312 3.941406 -2.15625 4.234375 -2.03125 C 4.523438 -1.914062 4.832031 -1.859375 5.15625 -1.859375 C 5.488281 -1.859375 5.789062 -1.914062 6.0625 -2.03125 C 6.34375 -2.144531 6.585938 -2.269531 6.796875 -2.40625 C 7.035156 -2.550781 7.25 -2.726562 7.4375 -2.9375 L 8.8125 -1.375 C 8.550781 -1.070312 8.242188 -0.800781 7.890625 -0.5625 C 7.578125 -0.351562 7.191406 -0.164062 6.734375 0 C 6.285156 0.15625 5.757812 0.234375 5.15625 0.234375 Z M 5.15625 0.234375 "/></g></g></g><g fill="#f1eeea" fill-opacity="1"><g transform="translate(262.554669, 191.249987)"><g><path d="M 0.953125 -8.40625 L 3.234375 -8.40625 L 3.234375 -5.34375 L 6.296875 -5.34375 L 6.296875 -8.40625 L 8.578125 -8.40625 L 8.578125 0 L 6.296875 0 L 6.296875 -3.1875 L 3.234375 -3.1875 L 3.234375 0 L 0.953125 0 Z M 0.953125 -8.40625 "/></g></g></g></svg>