<?xml version="1.0" encoding="utf-8"?>
<!-- Generator: Adobe Illustrator 26.5.0, SVG Export Plug-In . SVG Version: 6.00 Build 0)  -->
<svg version="1.1" id="Layer_1" xmlns="http://www.w3.org/2000/svg" xmlns:xlink="http://www.w3.org/1999/xlink" x="0px" y="0px"
	 viewBox="0 0 2000 642.5" style="enable-background:new 0 0 2000 642.5;" xml:space="preserve">
<style type="text/css">
	.st0{clip-path:url(#SVGID_00000126283137309369111110000013166157889827185323_);}
	.st1{fill:#261747;}
</style>
<g>
	<defs>
		<rect id="SVGID_1_" x="276.5" y="157.6" width="1447" height="327.4"/>
	</defs>
	<clipPath id="SVGID_00000164485001349781067300000008526833731523469237_">
		<use xlink:href="#SVGID_1_"  style="overflow:visible;"/>
	</clipPath>
	<g style="clip-path:url(#SVGID_00000164485001349781067300000008526833731523469237_);">
		<path class="st1" d="M689.6,157.6c-90.2,0-163.3,73.1-163.3,163.3s73,163.3,163.3,163.3c90.2,0,163.3-73.1,163.3-163.3
			S779.8,157.6,689.6,157.6 M689.6,454.6c-71.3,0-129.3-59.9-129.3-133.6s57.9-133.6,129.3-133.6c71.3,0,129.3,59.9,129.3,133.6
			C818.8,394.9,760.9,454.6,689.6,454.6 M370.9,444.9V226.7h-93.7V197H498v29.7h-93.3v218h-33.8V444.9z M1101.8,444.9l-80.3-114
			h-78.6v114h-34.4V197h34.4v104h81.2l74.6-104h39.4l-87.6,120.8l90.4,126.9h-39V444.9z M1197.2,444.9V197h194.3v29.7h-160.1V301
			h148.7v29.7h-148.7V415h162.9v29.7h-197.1V444.9z M1690.2,197h34v247.6h-64.4l-155.1-218h-12.8v218h-34.4V197h64.7l155.5,218h12.5
			V197z"/>
	</g>
</g>
</svg>
