<svg version="1.1" id="Layer_1" xmlns="http://www.w3.org/2000/svg" xmlns:xlink="http://www.w3.org/1999/xlink" x="0px" y="0px"
	 width="100%" viewBox="0 0 438 120" enable-background="new 0 0 438 120" xml:space="preserve">
<path fill="#FFFFFF" opacity="1.000000" stroke="none" 
	d="
M131.000000,121.000000 
	C88.645775,121.000000 46.291542,121.000000 3.555278,120.670181 
	C3.988964,119.528931 4.723527,118.609901 5.633518,117.923431 
	C11.751928,113.307846 17.337065,107.557129 26.129154,108.433861 
	C31.868530,111.536461 37.433640,114.317055 42.998749,117.097649 
	C43.384758,116.728806 43.770767,116.359962 44.156776,115.991112 
	C42.474098,112.644798 40.791420,109.298477 39.055721,105.584953 
	C34.094715,95.410126 29.186735,85.602509 23.710962,74.660271 
	C21.655560,78.322159 20.228760,80.652969 19.002350,83.084831 
	C12.972356,95.041824 6.995573,107.025650 1.000001,119.000000 
	C1.000000,79.711174 1.000000,40.422344 1.000000,1.000000 
	C90.354187,1.000000 179.708435,1.000000 269.424561,1.331947 
	C264.924469,5.200707 260.231384,9.011410 255.128906,12.158263 
	C252.594864,13.721098 251.923050,15.351807 251.951706,18.072298 
	C252.068390,29.149805 252.000290,40.229259 252.000290,51.742111 
	C239.761887,37.224174 214.742905,39.294514 202.906708,52.724697 
	C187.340027,70.387741 189.522202,102.958633 209.365677,115.764503 
	C212.663315,117.892624 216.443039,119.273712 220.000000,121.000000 
	C196.645767,121.000000 173.291550,121.000000 149.583282,120.661392 
	C153.538818,117.660034 157.848404,114.997284 161.902176,112.492599 
	C161.980972,114.060646 162.100449,116.438110 162.210098,118.620132 
	C169.427231,118.620132 176.155197,118.620132 182.769882,118.620132 
	C182.769882,93.302574 182.769882,68.365448 182.769882,43.263893 
	C175.812134,43.263893 169.086334,43.263893 162.000381,43.263893 
	C162.000381,45.156845 162.000381,46.788227 162.000381,48.419609 
	C162.000366,65.579933 162.017502,82.740303 161.968781,99.900490 
	C161.964752,101.320999 161.972366,103.094398 161.194244,104.099998 
	C157.419479,108.978271 142.978958,109.783607 138.148010,105.699539 
	C134.148071,102.318001 133.056061,97.813194 133.029724,92.961296 
	C132.948349,77.967285 132.999985,62.972546 132.999969,47.978088 
	C132.999969,46.388271 132.999969,44.798454 132.999969,43.369453 
	C125.925140,43.369453 119.528564,43.369453 112.999878,43.369453 
	C112.999878,59.561176 113.274818,75.388214 112.917519,91.200974 
	C112.601311,105.195244 117.667366,115.497147 131.000000,121.000000 
M44.075050,33.016048 
	C46.346939,38.359776 48.618832,43.703506 50.993057,49.718796 
	C51.623608,50.826439 52.254158,51.934082 52.990177,53.647449 
	C53.290440,54.114105 53.590702,54.580765 53.992859,55.705212 
	C54.384094,56.470146 54.775330,57.235085 55.032448,58.734146 
	C56.985489,62.505341 58.938530,66.276527 60.997524,70.782768 
	C61.675102,72.248566 62.339699,73.720528 63.032276,75.179199 
	C69.362831,88.512314 75.644150,101.869469 82.105560,115.138908 
	C82.853470,116.674835 84.560616,118.757675 85.905907,118.820808 
	C93.490570,119.176682 101.100571,118.992622 109.263214,118.992622 
	C104.683205,109.406212 100.386238,100.369354 96.052773,91.350021 
	C83.401299,65.018250 70.749695,38.686504 58.030998,12.387219 
	C57.414745,11.112956 56.158623,10.148145 55.200470,9.039230 
	C54.429996,10.344377 53.659519,11.649523 52.257805,13.279720 
	C49.783539,19.187220 47.309273,25.094719 44.337540,31.337914 
	C44.415146,31.705223 44.492752,32.072533 44.075050,33.016048 
M43.421169,117.855721 
	C43.496883,117.643539 43.572594,117.431358 43.648312,117.219177 
	C43.433563,117.285767 43.218819,117.352356 43.421169,117.855721 
z"/>
<path fill="#FFFFFF" opacity="1.000000" stroke="none" 
	d="
M313.000000,121.000000 
	C288.312439,121.000000 263.624878,121.000000 238.514175,120.723907 
	C238.394012,120.243042 238.696976,120.038269 239.363907,119.900665 
	C243.182785,117.665169 246.637695,115.362511 250.061157,113.029160 
	C250.029694,112.998474 250.054169,113.082893 250.307999,112.997292 
	C250.388672,112.570145 250.215530,112.228600 250.106140,111.610733 
	C250.763718,110.925354 251.357513,110.516312 251.972473,110.550285 
	C251.997040,112.902931 251.681671,114.893639 252.138107,116.688026 
	C252.366943,117.587662 254.001709,118.129684 255.463837,118.905853 
	C261.525970,118.978279 267.124939,118.978279 273.000000,118.978279 
	C273.000000,79.262360 273.000000,40.131180 273.000000,1.000000 
	C328.225555,1.000000 383.451111,1.000000 439.000000,1.000000 
	C439.000000,20.353027 439.000000,39.707855 438.647583,59.397102 
	C436.396576,49.831043 430.342529,43.570297 420.577240,42.170879 
	C407.472900,40.292953 396.316223,44.060902 388.792786,57.922909 
	C388.792786,51.924767 388.792786,47.554913 388.792786,43.375580 
	C381.577667,43.375580 374.849182,43.375580 368.218628,43.375580 
	C368.218628,68.683540 368.218628,93.614540 368.218628,118.748123 
	C375.162231,118.748123 381.886261,118.748123 388.999817,118.748123 
	C388.999817,103.215775 388.950745,87.931801 389.019348,72.648354 
	C389.056702,64.327171 396.993469,58.353230 407.071198,57.871113 
	C413.877136,57.545513 418.791565,61.829052 418.953156,71.940132 
	C419.150055,84.261597 419.000000,96.588600 419.000000,108.913208 
	C419.000000,112.185677 419.000000,115.458145 419.000000,119.000000 
	C426.060974,119.000000 432.530487,119.000000 439.000000,119.000000 
	C439.611511,122.057426 437.289825,120.960907 436.020203,120.966393 
	C423.239319,121.021599 410.458099,121.000000 397.676971,121.000000 
	C376.430420,121.000000 355.183868,121.000000 333.596741,120.652115 
	C344.653473,117.086845 355.372589,106.257935 354.075470,98.187775 
	C343.757629,110.377563 331.349243,113.626213 317.476624,106.609970 
	C309.363892,102.506874 303.971832,88.931084 305.724152,79.781982 
	C322.697296,79.781982 339.765900,79.781982 357.000061,79.781982 
	C357.000061,76.985001 357.142090,74.652031 356.974548,72.341507 
	C356.368073,63.976810 353.958710,55.837662 347.592072,50.477474 
	C335.205688,40.049168 320.714417,38.913918 306.271301,45.481277 
	C288.292877,53.656174 279.656311,72.463913 284.199524,91.971001 
	C286.192749,100.529373 289.862579,108.793030 298.116364,113.544159 
	C302.917358,116.307770 308.028442,118.532700 313.000000,121.000000 
z"/>
<path fill="#0F48F4" opacity="1.000000" stroke="none" 
	d="
M272.625000,1.000000 
	C273.000000,40.131180 273.000000,79.262360 273.000000,118.978279 
	C267.124939,118.978279 261.525970,118.978279 255.463593,118.484695 
	C254.659729,115.473686 254.370071,112.946571 253.894699,110.454895 
	C253.850632,110.223839 252.627167,110.217781 251.951309,110.107262 
	C251.357513,110.516312 250.763718,110.925354 250.095001,111.909912 
	C250.031448,112.684578 250.042801,112.883736 250.054169,113.082893 
	C250.054169,113.082893 250.029694,112.998474 249.678314,113.015991 
	C245.275284,114.374817 240.734924,114.973923 238.999954,119.833504 
	C238.696976,120.038269 238.394012,120.243042 238.045517,120.723907 
	C232.311966,121.000000 226.623917,121.000000 220.467941,121.000000 
	C216.443039,119.273712 212.663315,117.892624 209.365677,115.764503 
	C189.522202,102.958633 187.340027,70.387741 202.906708,52.724697 
	C214.742905,39.294514 239.761887,37.224174 252.000290,51.742111 
	C252.000290,40.229259 252.068390,29.149805 251.951706,18.072298 
	C251.923050,15.351807 252.594864,13.721098 255.128906,12.158263 
	C260.231384,9.011410 264.924469,5.200707 269.893250,1.331947 
	C270.750000,1.000000 271.500000,1.000000 272.625000,1.000000 
M252.928787,102.871109 
	C253.617310,101.686806 254.889465,100.509636 254.904053,99.317078 
	C255.050415,87.354599 255.123444,75.387169 254.905487,63.426804 
	C254.841553,59.919331 253.305222,56.889915 248.097229,56.980534 
	C235.654800,52.031143 223.951309,55.817200 219.092239,63.861465 
	C214.194275,71.970154 213.909470,81.051216 215.688278,90.010414 
	C216.473557,93.965599 218.577393,97.902542 220.933762,101.248322 
	C225.033875,107.070030 231.813492,107.727859 238.223312,109.058754 
	C244.470062,110.355774 247.963181,106.020889 252.928787,102.871109 
z"/>
<path fill="#0F48F4" opacity="1.000000" stroke="none" 
	d="
M439.000000,118.531342 
	C432.530487,119.000000 426.060974,119.000000 419.000000,119.000000 
	C419.000000,115.458145 419.000000,112.185677 419.000000,108.913208 
	C419.000000,96.588600 419.150055,84.261597 418.953156,71.940132 
	C418.791565,61.829052 413.877136,57.545513 407.071198,57.871113 
	C396.993469,58.353230 389.056702,64.327171 389.019348,72.648354 
	C388.950745,87.931801 388.999817,103.215775 388.999817,118.748123 
	C381.886261,118.748123 375.162231,118.748123 368.218628,118.748123 
	C368.218628,93.614540 368.218628,68.683540 368.218628,43.375580 
	C374.849182,43.375580 381.577667,43.375580 388.792786,43.375580 
	C388.792786,47.554913 388.792786,51.924767 388.792786,57.922909 
	C396.316223,44.060902 407.472900,40.292953 420.577240,42.170879 
	C430.342529,43.570297 436.396576,49.831043 438.647583,59.865761 
	C439.000000,79.354225 439.000000,98.708458 439.000000,118.531342 
z"/>
<path fill="#0F48F4" opacity="1.000000" stroke="none" 
	d="
M131.467941,121.000000 
	C117.667366,115.497147 112.601311,105.195244 112.917519,91.200974 
	C113.274818,75.388214 112.999878,59.561176 112.999878,43.369453 
	C119.528564,43.369453 125.925140,43.369453 132.999969,43.369453 
	C132.999969,44.798454 132.999969,46.388271 132.999969,47.978088 
	C132.999985,62.972546 132.948349,77.967285 133.029724,92.961296 
	C133.056061,97.813194 134.148071,102.318001 138.148010,105.699539 
	C142.978958,109.783607 157.419479,108.978271 161.194244,104.099998 
	C161.972366,103.094398 161.964752,101.320999 161.968781,99.900490 
	C162.017502,82.740303 162.000366,65.579933 162.000381,48.419609 
	C162.000381,46.788227 162.000381,45.156845 162.000381,43.263893 
	C169.086334,43.263893 175.812134,43.263893 182.769882,43.263893 
	C182.769882,68.365448 182.769882,93.302574 182.769882,118.620132 
	C176.155197,118.620132 169.427231,118.620132 162.210098,118.620132 
	C162.100449,116.438110 161.980972,114.060646 161.902176,112.492599 
	C157.848404,114.997284 153.538818,117.660034 149.114624,120.661392 
	C143.311966,121.000000 137.623917,121.000000 131.467941,121.000000 
z"/>
<path fill="#0F48F4" opacity="1.000000" stroke="none" 
	d="
M313.468384,121.000000 
	C308.028442,118.532700 302.917358,116.307770 298.116364,113.544159 
	C289.862579,108.793030 286.192749,100.529373 284.199524,91.971001 
	C279.656311,72.463913 288.292877,53.656174 306.271301,45.481277 
	C320.714417,38.913918 335.205688,40.049168 347.592072,50.477474 
	C353.958710,55.837662 356.368073,63.976810 356.974548,72.341507 
	C357.142090,74.652031 357.000061,76.985001 357.000061,79.781982 
	C339.765900,79.781982 322.697296,79.781982 305.724152,79.781982 
	C303.971832,88.931084 309.363892,102.506874 317.476624,106.609970 
	C331.349243,113.626213 343.757629,110.377563 354.075470,98.187775 
	C355.372589,106.257935 344.653473,117.086845 333.128113,120.652115 
	C326.645599,121.000000 320.291199,121.000000 313.468384,121.000000 
M306.017151,68.856789 
	C306.464905,69.227989 306.910675,69.920441 307.360657,69.923187 
	C317.437805,69.984734 327.515442,69.970383 337.550018,69.970383 
	C338.461639,60.494457 334.464050,51.499290 327.849152,49.321629 
	C320.534576,46.913620 313.183380,49.406490 308.381195,56.087635 
	C303.282806,59.995331 302.371246,64.257538 306.017151,68.856789 
z"/>
<path fill="#0F48F4" opacity="1.000000" stroke="none" 
	d="
M25.954885,108.111862 
	C17.337065,107.557129 11.751928,113.307846 5.633518,117.923431 
	C4.723527,118.609901 3.988964,119.528931 3.086622,120.670181 
	C2.333337,120.666656 1.666670,120.333328 1.000003,119.500000 
	C6.995573,107.025650 12.972356,95.041824 19.002350,83.084831 
	C20.228760,80.652969 21.655560,78.322159 23.710962,74.660271 
	C29.186735,85.602509 34.094715,95.410126 38.776562,105.789909 
	C39.152138,108.708702 39.753853,111.055328 40.617142,114.422089 
	C38.947582,113.067924 38.005932,112.047043 36.851223,111.416077 
	C33.464172,109.565323 30.414068,106.462402 25.954885,108.111862 
z"/>
<path fill="#0F48F4" opacity="1.000000" stroke="none" 
	d="
M55.166565,58.000019 
	C54.775330,57.235085 54.384094,56.470146 54.187988,55.205807 
	C53.883648,54.151508 53.384178,53.596619 52.884712,53.041725 
	C52.254158,51.934082 51.623608,50.826439 51.210167,49.180977 
	C49.141640,43.242054 46.855999,37.840950 44.570358,32.439842 
	C44.492752,32.072533 44.415146,31.705223 44.965755,31.132935 
	C48.369450,25.458202 51.166725,19.999094 53.858154,14.488291 
	C53.997524,14.202920 53.232830,13.476009 52.889042,12.954668 
	C53.659519,11.649523 54.429996,10.344377 55.200470,9.039230 
	C56.158623,10.148145 57.414745,11.112956 58.030998,12.387219 
	C70.749695,38.686504 83.401299,65.018250 96.052773,91.350021 
	C100.386238,100.369354 104.683205,109.406212 109.263214,118.992622 
	C101.100571,118.992622 93.490570,119.176682 85.905907,118.820808 
	C84.560616,118.757675 82.853470,116.674835 82.105560,115.138908 
	C75.644150,101.869469 69.362831,88.512314 63.032276,75.179199 
	C62.339699,73.720528 61.675102,72.248566 61.227905,70.203033 
	C60.922379,64.903725 60.360775,60.198048 55.166565,58.000019 
z"/>
<path fill="#0F48F4" opacity="1.000000" stroke="none" 
	d="
M26.129154,108.433861 
	C30.414068,106.462402 33.464172,109.565323 36.851223,111.416077 
	C38.005932,112.047043 38.947582,113.067924 40.617142,114.422089 
	C39.753853,111.055328 39.152138,108.708702 38.829586,106.157120 
	C40.791420,109.298477 42.474098,112.644798 44.156776,115.991112 
	C43.770767,116.359962 43.384758,116.728806 42.998749,117.097649 
	C37.433640,114.317055 31.868530,111.536461 26.129154,108.433861 
z"/>
<path fill="#0F48F4" opacity="1.000000" stroke="none" 
	d="
M52.573425,13.117193 
	C53.232830,13.476009 53.997524,14.202920 53.858154,14.488291 
	C51.166725,19.999094 48.369450,25.458202 45.214489,30.965088 
	C47.309273,25.094719 49.783539,19.187220 52.573425,13.117193 
z"/>
<path fill="#0F48F4" opacity="1.000000" stroke="none" 
	d="
M44.322704,32.727943 
	C46.855999,37.840950 49.141640,43.242054 51.159000,48.845200 
	C48.618832,43.703506 46.346939,38.359776 44.322704,32.727943 
z"/>
<path fill="#0F48F4" opacity="1.000000" stroke="none" 
	d="
M55.099506,58.367081 
	C60.360775,60.198048 60.922379,64.903725 61.174927,69.835510 
	C58.938530,66.276527 56.985489,62.505341 55.099506,58.367081 
z"/>
<path fill="#0F48F4" opacity="1.000000" stroke="none" 
	d="
M52.937447,53.344589 
	C53.384178,53.596619 53.883648,54.151508 54.137039,54.876915 
	C53.590702,54.580765 53.290440,54.114105 52.937447,53.344589 
z"/>
<path fill="#0F48F4" opacity="1.000000" stroke="none" 
	d="
M43.212624,117.637329 
	C43.218819,117.352356 43.433563,117.285767 43.648308,117.219177 
	C43.572594,117.431358 43.496883,117.643539 43.212624,117.637329 
z"/>
<path fill="#0F48F4" opacity="1.000000" stroke="none" 
	d="
M239.363907,119.900665 
	C240.734924,114.973923 245.275284,114.374817 249.709778,113.046684 
	C246.637695,115.362511 243.182785,117.665169 239.363907,119.900665 
z"/>
<path fill="#0F48F4" opacity="1.000000" stroke="none" 
	d="
M251.972473,110.550285 
	C252.627167,110.217781 253.850632,110.223839 253.894699,110.454895 
	C254.370071,112.946571 254.659729,115.473686 255.000397,118.412277 
	C254.001709,118.129684 252.366943,117.587662 252.138107,116.688026 
	C251.681671,114.893639 251.997040,112.902931 251.972473,110.550285 
z"/>
<path fill="#0F48F4" opacity="1.000000" stroke="none" 
	d="
M250.307999,112.997292 
	C250.042801,112.883736 250.031448,112.684578 250.031219,112.186241 
	C250.215530,112.228600 250.388672,112.570145 250.307999,112.997292 
z"/>
<path fill="#FFFFFF" opacity="1.000000" stroke="none" 
	d="
M252.166595,103.000076 
	C247.963181,106.020889 244.470062,110.355774 238.223312,109.058754 
	C231.813492,107.727859 225.033875,107.070030 220.933762,101.248322 
	C218.577393,97.902542 216.473557,93.965599 215.688278,90.010414 
	C213.909470,81.051216 214.194275,71.970154 219.092239,63.861465 
	C223.951309,55.817200 235.654800,52.031143 248.652222,57.350319 
	C250.138168,60.012093 251.818604,62.285603 251.875641,64.599136 
	C252.191116,77.394066 252.111084,90.198738 252.166595,103.000076 
z"/>
<path fill="#0F48F4" opacity="1.000000" stroke="none" 
	d="
M252.547684,102.935593 
	C252.111084,90.198738 252.191116,77.394066 251.875641,64.599136 
	C251.818604,62.285603 250.138168,60.012093 249.046600,57.381496 
	C253.305222,56.889915 254.841553,59.919331 254.905487,63.426804 
	C255.123444,75.387169 255.050415,87.354599 254.904053,99.317078 
	C254.889465,100.509636 253.617310,101.686806 252.547684,102.935593 
z"/>
<path fill="#FFFFFF" opacity="1.000000" stroke="none" 
	d="
M309.114960,56.041824 
	C313.183380,49.406490 320.534576,46.913620 327.849152,49.321629 
	C334.464050,51.499290 338.461639,60.494457 337.550018,69.970383 
	C327.515442,69.970383 317.437805,69.984734 307.360657,69.923187 
	C306.910675,69.920441 306.464905,69.227989 305.997467,68.021629 
	C307.023529,63.471592 308.069244,59.756710 309.114960,56.041824 
z"/>
<path fill="#0F48F4" opacity="1.000000" stroke="none" 
	d="
M308.748077,56.064732 
	C308.069244,59.756710 307.023529,63.471592 305.905701,67.592880 
	C302.371246,64.257538 303.282806,59.995331 308.748077,56.064732 
z"/>
</svg>