<?xml version="1.0" encoding="utf-8"?>
<!-- Generator: Adobe Illustrator 28.1.0, SVG Export Plug-In . SVG Version: 6.00 Build 0)  -->
<svg version="1.0" xmlns="http://www.w3.org/2000/svg" xmlns:xlink="http://www.w3.org/1999/xlink" x="0px" y="0px"
	 viewBox="0 0 977.3 258.3" style="enable-background:new 0 0 977.3 258.3;" xml:space="preserve">
<style type="text/css">
	.st0{fill:#4A0082;}
	.st1{fill:none;}
	.st2{fill:#4A0081;}
	.st3{fill-rule:evenodd;clip-rule:evenodd;fill:#4A0081;}
</style>
<g id="_x3C_Layer_x3E_">
</g>
<g id="Layer_1">
	<g>
		<g>
			<path class="st0" d="M21.6,29.5c0.1-2.4,1.3-4.7,3.3-5.9c2-1.3,4.4-1.4,6.5-0.3l98.8,57.5c2.1,1.3,3.4,3.6,3.4,6.2
				c0,2.6-1.3,4.9-3.4,6.2L99.6,111l21.9,12.9l19-11c8.9-5.2,14.4-15.1,14.4-25.8c0-10.7-5.5-20.5-14.4-25.8L41.8,3.7
				c-8.7-5.1-19.3-5-27.9,0.4C5.2,9.4-0.1,19,0,29.5V51l21.6,12.5V29.5z"/>
			<path class="st0" d="M140.5,144.8L18.4,76.8L0,66.6v121l73.9-41.1l-22-12.2l-30.3,16.9V103l108.6,60.5c2.1,1.2,3.5,3.4,3.5,5.8
				c0,2.5-1.3,4.7-3.5,5.9l-98.8,55c-2.1,1-4.5,0.9-6.5-0.3c-2-1.2-3.2-3.3-3.3-5.6v-33.8L0,202.5v21.6c0,10,5.3,19.2,13.9,24.2
				c4.3,2.5,9.2,3.9,14.2,3.9c4.8,0,9.5-1.2,13.7-3.6l98.8-54.7c8.9-5,14.4-14.4,14.4-24.6C155,159.2,149.5,149.8,140.5,144.8z"/>
		</g>
		<g>
			<rect x="202.4" y="172" class="st1" width="774.8" height="82.3"/>
			<path class="st0" d="M232.3,239c-3.7,0-7.2-0.9-10.3-2.8c-3.1-1.9-5.5-4.3-7.3-7.2v9.1h-5.5V172h6.2v28.8
				c2.1-3.2,4.6-5.8,7.6-7.7c3-2,6.4-2.9,10.3-2.9c3.3,0,6.3,0.7,8.9,2.1s4.9,3.2,6.7,5.6c1.8,2.3,3.3,5,4.3,7.9
				c1,2.9,1.5,5.9,1.5,9c0,3.3-0.6,6.5-1.7,9.4c-1.1,3-2.7,5.5-4.7,7.7c-2,2.2-4.4,4-7.1,5.3C238.4,238.3,235.4,239,232.3,239z
				 M230.8,233.6c2.6,0,5-0.5,7.1-1.6c2.1-1.1,4-2.5,5.5-4.3c1.5-1.8,2.7-3.8,3.6-6.1c0.9-2.3,1.3-4.6,1.3-7c0-2.5-0.4-4.9-1.2-7.2
				c-0.8-2.3-2-4.3-3.4-6.1c-1.5-1.8-3.3-3.2-5.3-4.3c-2.1-1.1-4.4-1.6-6.8-1.6c-1.9,0-3.6,0.3-5.3,1s-3.1,1.5-4.5,2.6
				s-2.6,2.3-3.7,3.8c-1.1,1.4-2,2.9-2.7,4.5V222c0.2,1.6,0.9,3.2,1.9,4.6c1.1,1.4,2.3,2.6,3.8,3.7c1.5,1,3.1,1.8,4.8,2.4
				C227.6,233.3,229.3,233.6,230.8,233.6z"/>
			<path class="st0" d="M266.2,252.6c0.5,0.1,1,0.1,1.4,0.1c0.5,0,0.9,0,1.3,0c1.1,0,1.9-0.2,2.6-0.5c0.6-0.3,1.3-1,1.9-2
				c0.6-1,1.3-2.5,2-4.4c0.8-1.9,1.8-4.5,3.2-7.8L258,190.9h6.3l17.5,41.5l16.2-41.5h5.9l-24.5,60.9c-0.7,1.8-1.8,3.3-3.3,4.6
				c-1.5,1.3-3.6,1.9-6.3,1.9c-0.6,0-1.2,0-1.7,0c-0.5,0-1.2-0.1-2-0.2V252.6z"/>
			<path class="st0" d="M377.6,232.5v5.6h-43.2v-64.3h42.4v5.6h-36v23.2h31.4v5.3h-31.4v24.5H377.6z"/>
			<path class="st0" d="M399.6,238.1l-19.2-47.2h6.3l16.2,41.5l16.3-41.5h6l-19.2,47.2H399.6z"/>
			<path class="st0" d="M452.5,239c-3.4,0-6.6-0.6-9.5-1.9c-2.9-1.3-5.4-3.1-7.5-5.3c-2.1-2.3-3.8-4.9-4.9-7.8
				c-1.2-3-1.8-6.1-1.8-9.5c0-3.3,0.6-6.4,1.8-9.4c1.2-2.9,2.8-5.5,4.9-7.7c2.1-2.2,4.6-4,7.5-5.3c2.9-1.3,6-1.9,9.4-1.9
				c3.4,0,6.6,0.6,9.5,1.9c2.9,1.3,5.3,3.1,7.4,5.3c2.1,2.2,3.7,4.8,4.8,7.7c1.1,2.9,1.7,6,1.7,9.2c0,0.5,0,1,0,1.4s0,0.8-0.1,1
				h-40.4c0.2,2.5,0.8,4.9,1.8,7c1,2.1,2.3,4,3.8,5.6c1.6,1.6,3.4,2.8,5.4,3.7c2,0.9,4.2,1.3,6.5,1.3c1.5,0,3-0.2,4.5-0.6
				c1.5-0.4,2.9-1,4.2-1.7c1.3-0.7,2.4-1.6,3.4-2.7c1-1.1,1.8-2.2,2.4-3.5l5.3,1.4c-0.7,1.8-1.8,3.3-3.1,4.8
				c-1.3,1.4-2.9,2.7-4.6,3.7c-1.8,1.1-3.7,1.9-5.8,2.4C457,238.7,454.8,239,452.5,239z M469.9,212c-0.2-2.5-0.8-4.8-1.8-6.9
				c-1-2.1-2.3-3.9-3.8-5.4c-1.5-1.5-3.3-2.7-5.3-3.5c-2-0.8-4.2-1.3-6.5-1.3c-2.3,0-4.5,0.4-6.5,1.3c-2.1,0.8-3.8,2-5.4,3.5
				c-1.5,1.5-2.8,3.3-3.7,5.4c-0.9,2.1-1.5,4.4-1.7,6.9H469.9z"/>
			<path class="st0" d="M485.6,172h6.2v55.4c0,1.8,0.5,3.1,1.4,4.1s2.3,1.5,4.1,1.5c0.7,0,1.4-0.1,2.4-0.3c0.9-0.2,1.8-0.4,2.5-0.7
				l1.1,5c-1.1,0.5-2.6,0.9-4.2,1.2c-1.7,0.3-3.1,0.5-4.3,0.5c-2.8,0-5.1-0.8-6.7-2.4c-1.6-1.6-2.4-3.8-2.4-6.7V172z"/>
			<path class="st0" d="M511.7,252.6c0.5,0.1,1,0.1,1.4,0.1c0.5,0,0.9,0,1.3,0c1.1,0,1.9-0.2,2.6-0.5c0.6-0.3,1.3-1,1.9-2
				c0.6-1,1.3-2.5,2-4.4c0.8-1.9,1.8-4.5,3.2-7.8l-20.6-47.2h6.3l17.5,41.5l16.2-41.5h5.9L525,251.8c-0.7,1.8-1.8,3.3-3.3,4.6
				c-1.5,1.3-3.6,1.9-6.3,1.9c-0.6,0-1.2,0-1.7,0c-0.5,0-1.2-0.1-2-0.2V252.6z"/>
			<path class="st0" d="M597.7,238.1h-6.2v-26.4c0-5.6-0.8-9.7-2.5-12.2c-1.7-2.5-4.2-3.8-7.7-3.8c-1.8,0-3.6,0.3-5.4,1
				c-1.8,0.7-3.5,1.6-5,2.8c-1.5,1.2-2.9,2.6-4.1,4.3c-1.2,1.7-2.1,3.5-2.6,5.4v28.9H558v-47.2h5.6v10.7c1.9-3.4,4.7-6.2,8.3-8.3
				c3.6-2.1,7.5-3.2,11.7-3.2c2.6,0,4.8,0.5,6.6,1.4c1.8,1,3.3,2.3,4.3,4.1c1.1,1.8,1.9,3.9,2.4,6.4c0.5,2.5,0.7,5.3,0.7,8.4V238.1z
				"/>
			<path class="st0" d="M635.2,238.1v-64.3h26.6c2.8,0,5.3,0.6,7.7,1.8c2.3,1.2,4.3,2.7,6,4.6c1.7,1.9,3,4.1,4,6.5
				c1,2.4,1.4,4.9,1.4,7.3c0,2.7-0.5,5.2-1.4,7.7s-2.2,4.6-3.8,6.5c-1.6,1.9-3.6,3.4-5.8,4.5c-2.3,1.1-4.8,1.7-7.6,1.7h-20.8v23.7
				H635.2z M641.5,208.8h20.6c1.9,0,3.6-0.4,5.1-1.2c1.5-0.8,2.9-1.9,3.9-3.3s1.9-2.9,2.5-4.7c0.6-1.8,0.9-3.6,0.9-5.6
				c0-2-0.3-3.9-1-5.7c-0.7-1.8-1.6-3.3-2.8-4.7c-1.2-1.3-2.6-2.4-4.2-3.1c-1.6-0.8-3.3-1.1-5-1.1h-20V208.8z"/>
			<path class="st0" d="M701.7,239c-2.2,0-4.3-0.4-6.2-1.1c-1.9-0.8-3.6-1.8-5-3.1c-1.4-1.3-2.5-2.9-3.3-4.7
				c-0.8-1.8-1.2-3.7-1.2-5.8c0-2.1,0.5-4,1.4-5.7c1-1.8,2.3-3.3,4.1-4.5c1.8-1.3,3.8-2.2,6.2-2.9c2.4-0.7,5.1-1,8-1
				c2.4,0,4.9,0.2,7.3,0.6c2.5,0.4,4.7,1,6.6,1.8v-4.3c0-4.2-1.2-7.5-3.5-9.9c-2.4-2.4-5.6-3.7-9.8-3.7c-2.4,0-4.9,0.5-7.4,1.4
				c-2.5,1-5.1,2.4-7.7,4.2l-2.2-4.1c6.1-4.1,12-6.2,17.7-6.2c5.9,0,10.6,1.7,13.9,5c3.4,3.3,5.1,7.9,5.1,13.8v21.3
				c0,1.7,0.8,2.5,2.3,2.5v5.4c-1,0.2-1.8,0.3-2.4,0.3c-1.6,0-2.8-0.4-3.7-1.2c-0.9-0.8-1.3-1.9-1.4-3.3l-0.2-3.7
				c-2.2,2.8-4.9,5-8.2,6.5C709,238.2,705.5,239,701.7,239z M703.1,234.3c3.2,0,6.1-0.6,8.8-1.8c2.7-1.2,4.7-2.8,6.1-4.8
				c0.5-0.5,1-1.1,1.2-1.8c0.3-0.6,0.4-1.2,0.4-1.8v-7.7c-2.1-0.8-4.2-1.4-6.4-1.8c-2.2-0.4-4.5-0.6-6.7-0.6
				c-4.3,0-7.9,0.9-10.6,2.7c-2.7,1.8-4.1,4.2-4.1,7.2c0,1.4,0.3,2.8,0.9,4.1c0.6,1.3,1.4,2.4,2.4,3.3c1,0.9,2.2,1.7,3.6,2.2
				C700,234,701.5,234.3,703.1,234.3z"/>
			<path class="st0" d="M762.7,196.3c-4.2,0.1-7.8,1.3-10.9,3.4c-3.1,2.2-5.3,5.2-6.5,9v29.3h-6.2v-47.2h5.8v11.3
				c1.8-3.6,4.1-6.5,7.1-8.5c3-2.1,6.1-3.1,9.5-3.1c0.5,0,0.9,0,1.2,0.1V196.3z"/>
			<path class="st0" d="M793.6,235.8c-0.4,0.2-0.9,0.4-1.6,0.7c-0.7,0.3-1.5,0.6-2.4,0.9c-0.9,0.3-1.9,0.6-3.1,0.8
				c-1.1,0.2-2.4,0.4-3.6,0.4c-1.3,0-2.6-0.2-3.8-0.5c-1.2-0.4-2.3-0.9-3.2-1.7c-0.9-0.8-1.6-1.7-2.2-2.9c-0.5-1.1-0.8-2.5-0.8-4
				v-33.8h-6.5v-4.9h6.5V175h6.2v15.9h10.9v4.9h-10.9v32.1c0.1,1.8,0.7,3,1.9,3.8c1.1,0.8,2.4,1.2,3.8,1.2c1.8,0,3.3-0.3,4.6-0.9
				c1.3-0.6,2.2-1,2.5-1.2L793.6,235.8z"/>
			<path class="st0" d="M840.9,238.1h-6.2v-26.4c0-5.6-0.8-9.7-2.5-12.2c-1.7-2.5-4.2-3.8-7.7-3.8c-1.8,0-3.6,0.3-5.4,1
				c-1.8,0.7-3.5,1.6-5,2.8c-1.5,1.2-2.9,2.6-4.1,4.3c-1.2,1.7-2.1,3.5-2.6,5.4v28.9h-6.2v-47.2h5.6v10.7c1.9-3.4,4.7-6.2,8.3-8.3
				c3.6-2.1,7.5-3.2,11.7-3.2c2.6,0,4.8,0.5,6.6,1.4c1.8,1,3.3,2.3,4.3,4.1c1.1,1.8,1.9,3.9,2.4,6.4c0.5,2.5,0.7,5.3,0.7,8.4V238.1z
				"/>
			<path class="st0" d="M874.4,239c-3.4,0-6.6-0.6-9.5-1.9c-2.9-1.3-5.4-3.1-7.5-5.3c-2.1-2.3-3.8-4.9-4.9-7.8
				c-1.2-3-1.8-6.1-1.8-9.5c0-3.3,0.6-6.4,1.8-9.4c1.2-2.9,2.8-5.5,4.9-7.7c2.1-2.2,4.6-4,7.5-5.3c2.9-1.3,6-1.9,9.4-1.9
				c3.4,0,6.6,0.6,9.5,1.9c2.9,1.3,5.3,3.1,7.4,5.3c2.1,2.2,3.7,4.8,4.8,7.7c1.1,2.9,1.7,6,1.7,9.2c0,0.5,0,1,0,1.4s0,0.8-0.1,1
				h-40.4c0.2,2.5,0.8,4.9,1.8,7c1,2.1,2.3,4,3.8,5.6c1.6,1.6,3.4,2.8,5.4,3.7c2,0.9,4.2,1.3,6.5,1.3c1.5,0,3-0.2,4.5-0.6
				c1.5-0.4,2.9-1,4.2-1.7c1.3-0.7,2.4-1.6,3.4-2.7c1-1.1,1.8-2.2,2.4-3.5l5.3,1.4c-0.7,1.8-1.8,3.3-3.1,4.8
				c-1.3,1.4-2.9,2.7-4.6,3.7c-1.8,1.1-3.7,1.9-5.8,2.4C878.9,238.7,876.7,239,874.4,239z M891.8,212c-0.2-2.5-0.8-4.8-1.8-6.9
				c-1-2.1-2.3-3.9-3.8-5.4c-1.5-1.5-3.3-2.7-5.3-3.5c-2-0.8-4.2-1.3-6.5-1.3c-2.3,0-4.5,0.4-6.5,1.3c-2.1,0.8-3.8,2-5.4,3.5
				c-1.5,1.5-2.8,3.3-3.7,5.4c-0.9,2.1-1.5,4.4-1.7,6.9H891.8z"/>
			<path class="st0" d="M930.8,196.3c-4.2,0.1-7.8,1.3-10.9,3.4c-3.1,2.2-5.3,5.2-6.5,9v29.3h-6.2v-47.2h5.8v11.3
				c1.8-3.6,4.1-6.5,7.1-8.5c3-2.1,6.1-3.1,9.5-3.1c0.5,0,0.9,0,1.2,0.1V196.3z"/>
			<path class="st0" d="M954.7,239c-3.7,0-7.3-0.6-10.8-1.8c-3.5-1.2-6.5-3-9.1-5.3l2.8-4.2c2.7,2.2,5.4,3.8,8.1,4.9
				c2.7,1.1,5.7,1.6,8.8,1.6c3.8,0,6.8-0.8,9.1-2.3c2.3-1.5,3.4-3.7,3.4-6.6c0-1.3-0.3-2.4-0.9-3.3c-0.6-0.9-1.5-1.6-2.7-2.3
				c-1.2-0.7-2.7-1.3-4.4-1.8c-1.8-0.5-3.8-1-6.2-1.6c-2.7-0.7-5.1-1.3-7.1-2c-2-0.7-3.6-1.4-4.9-2.3c-1.3-0.8-2.3-1.9-2.9-3.1
				c-0.6-1.2-1-2.8-1-4.7c0-2.4,0.5-4.4,1.4-6.2c0.9-1.8,2.2-3.3,3.8-4.5c1.6-1.2,3.5-2.1,5.6-2.7c2.1-0.6,4.4-0.9,6.8-0.9
				c3.6,0,6.9,0.6,9.9,1.8c3,1.2,5.3,2.7,7.2,4.7l-3,3.6c-1.8-1.8-3.9-3.2-6.4-4.1c-2.5-0.9-5.1-1.4-7.8-1.4c-1.6,0-3.1,0.2-4.5,0.5
				c-1.4,0.3-2.6,0.9-3.7,1.6c-1.1,0.7-1.9,1.6-2.5,2.8c-0.6,1.1-0.9,2.4-0.9,3.9c0,1.3,0.2,2.3,0.6,3.1c0.4,0.8,1.1,1.5,2.1,2
				c1,0.6,2.2,1.1,3.7,1.5c1.5,0.5,3.3,0.9,5.4,1.4c3,0.7,5.7,1.4,8,2.2c2.3,0.7,4.2,1.6,5.8,2.5c1.5,1,2.7,2.1,3.5,3.5
				c0.8,1.4,1.2,3.1,1.2,5.1c0,4.3-1.7,7.8-5,10.3C964.7,237.7,960.3,239,954.7,239z"/>
		</g>
		<g>
			<path class="st2" d="M710.2,134.9h-16.7L659,53.1h15.3l27.4,67.6l27.5-67.6h14.9L710.2,134.9z"/>
			<path class="st3" d="M255.7,14.2c25.4,0,43.9,8.9,43.9,32.4c0.6,11.6-6.4,22.2-17.2,26.4c12.2,4,20.3,15.5,19.9,28.4
				c0,23.5-17.3,33.7-44.1,33.7h-49V14.2H255.7z M224.2,28.5v38.2h31.1c15.9,0,28.4-3.5,28.4-19.4c0-15.9-12.9-18.9-28.6-18.9
				L224.2,28.5z M224.2,120.6V80.8l33.2,0.3c17.3,0,28.9,3.8,28.9,19.4c0,15.7-11.5,20.1-28.9,20.1H224.2z"/>
			<path class="st3" d="M389.8,98.9v-5.2c-0.4-25.1-16.2-42.4-38.4-42.4c-23.4,0-40.6,17.5-40.6,42.6c-0.7,11.3,3.4,22.4,11.3,30.5
				c7.9,8.1,18.9,12.5,30.2,12.1c12.4,0.5,24.4-3.9,33.5-12.4l-7.5-9.7c-6.9,6.2-15.9,9.6-25.2,9.7c-14.6,0.7-27.1-10.6-27.8-25.3
				H389.8z M375.4,87.5h-49.9c0.8-13.5,12-24,25.6-23.8C364.3,63.7,375.1,74.3,375.4,87.5z"/>
			<path class="st2" d="M458,71.1c-7.9-4.8-17-7.4-26.3-7.5c-11.2,0-18.4,4.7-18.4,12.2c0,7.5,6,9.5,15.9,10.8l9.4,1.2
				c17.3,2.3,27.6,9.7,27.6,23.1c0,15.6-13.9,25.9-36.2,25.9c-12.2,0-24.2-3.8-34.1-10.9l6.5-10.4c8,6.1,17.9,9.2,27.9,8.7
				c13.4,0,21.7-4.3,21.7-12.4c0-6-5.3-9.8-16.4-11.2l-9.4-1.1c-18.3-2.3-27.1-10.5-27.1-22.9c0-15.7,12.9-25.1,32.8-25.1
				c11.4-0.2,22.7,2.8,32.4,8.9L458,71.1z"/>
			<path class="st2" d="M534.6,65.8h-34.2v39.8c0,12.3,6.5,17.6,15.3,17.6c6-0.2,11.8-2.1,16.7-5.5l6.5,10.6
				c-7.1,5.3-15.6,8.1-24.5,8.1c-17.7,0-28.3-9.7-28.3-30.5V65.8h-17.5v-13h17.7V26.9h14.1v25.9h34.2L534.6,65.8z"/>
			<path class="st3" d="M561.1,31.3c1.9-1.8,3-4.4,3-7c0-2.7-1-5.3-2.9-7.2c-1.9-1.9-4.5-3-7.1-2.9c-2.7,0-5.2,1-7.1,3
				c-1.9,1.9-2.9,4.5-2.8,7.2c0,2.6,1,5.2,2.9,7c1.9,1.8,4.4,2.9,7,2.8C556.7,34.1,559.2,33.1,561.1,31.3z M546.9,134.9h14V53h-14
				V134.9z"/>
			<path class="st2" d="M654.6,84v51h-14.1V88.6c0-15.1-8.2-24-22.4-24c-6.5-0.3-12.8,2.2-17.4,6.8c-4.6,4.6-7,11-6.7,17.5v46.1
				h-13.8V53h13.9v10.7c6.4-8.2,16.3-12.8,26.7-12.4c8.9-0.6,17.7,2.6,24.1,8.9C651.4,66.3,654.9,75,654.6,84z"/>
			<path class="st3" d="M822.9,98.9v-5.2c0-25.1-16-42.4-38.1-42.4c-23.5,0-40.6,17.5-40.6,42.6c-0.7,11.3,3.4,22.4,11.3,30.5
				c7.9,8.1,18.8,12.5,30.1,12.1c12.4,0.5,24.4-3.9,33.5-12.4l-7.5-9.7c-6.9,6.2-15.9,9.7-25.2,9.7c-14.6,0.7-27-10.6-27.8-25.3
				H822.9z M808.5,87.5h-49.8c0.8-13.5,12.1-24,25.6-23.8C797.5,63.7,808.3,74.3,808.5,87.5z"/>
			<path class="st2" d="M891.2,71.1c-7.9-4.8-17-7.4-26.3-7.5c-11.2,0-18.4,4.7-18.4,12.2c0,7.5,5.9,9.5,15.8,10.8l9.4,1.2
				c17.3,2.3,27.6,9.7,27.6,23.1c0,15.6-13.9,25.9-36.2,25.9c-12.3,0.2-24.3-3.5-34.4-10.5l6.5-10.5c8,6.1,17.9,9.2,27.9,8.7
				c13.4,0,21.6-4.3,21.6-12.4c0-6-5.3-9.8-16.4-11.2l-9.4-1.1c-18.3-2.3-27.2-10.5-27.2-22.9c0-15.7,12.9-25.1,32.8-25.1
				c11.4-0.2,22.6,2.9,32.3,8.9L891.2,71.1z"/>
			<path class="st2" d="M968.9,65.8h-34.3v39.8c0,12.3,6.5,17.6,15.4,17.6c6-0.2,11.7-2.1,16.6-5.5l6.5,10.6
				c-7.1,5.3-15.6,8.1-24.5,8.1c-17.7,0-28.3-9.7-28.3-30.5V65.8h-17.5v-13h17.5V26.9h14.1v25.9h34.3L968.9,65.8z"/>
		</g>
	</g>
</g>
</svg>
